<svg xmlns="http://www.w3.org/2000/svg" width="512" height="512"><circle cx="256" cy="256" r="240" fill="#fa7b5f"/><path d="M156 146h172l28 28v176a16 16 0 0 1-16 16H172a16 16 0 0 1-16-16z" fill="#fff"/><rect x="196" y="146" width="120" height="74" rx="4" fill="#fa7b5f"/><rect x="272" y="160" width="24" height="46" rx="3" fill="#fff"/><g fill="#fa7b5f"><rect x="186" y="258" width="140" height="92" rx="8"/><path stroke="#fa7b5f" stroke-width="18" d="M280 120l-75 136h60l-33 136 75-136h-60z"/></g><path fill="#fff" stroke="#fff" stroke-width="4" d="M280 120l-75 136h60l-33 136 75-136h-60z"/></svg>